<?xml version="1.0" standalone="no"?>
<!DOCTYPE svg PUBLIC "-//W3C//DTD SVG 20010904//EN"
 "http://www.w3.org/TR/2001/REC-SVG-20010904/DTD/svg10.dtd">
<svg version="1.0" xmlns="http://www.w3.org/2000/svg"
 width="450.000000pt" height="360.000000pt" viewBox="0 0 450.000000 360.000000"
 preserveAspectRatio="xMidYMid meet">
<metadata>
Created by potrace 1.10, written by Peter Selinger 2001-2011
</metadata>
<g transform="translate(0.000000,360.000000) scale(0.100000,-0.100000)"
fill="#000000" stroke="none">
<path d="M1460 2792 c-100 -50 -108 -197 -13 -259 26 -17 81 -18 1048 -18 967
0 1022 1 1048 18 95 62 87 209 -13 259 -33 17 -103 18 -1035 18 -932 0 -1002
-1 -1035 -18z m2106 -67 c12 -19 15 -39 12 -77 -6 -58 -35 -91 -91 -102 -40
-8 -1946 -8 -1986 0 -18 4 -45 20 -62 36 -40 40 -41 112 -3 157 l26 31 1016 2
c1091 3 1054 5 1088 -47z"/>
<path d="M699 1887 c-39 -26 -69 -79 -69 -122 0 -43 30 -96 69 -122 l34 -23
1390 0 1391 0 32 22 c45 31 64 68 64 123 0 55 -19 92 -64 123 l-32 22 -1391 0
-1390 0 -34 -23z m2838 -30 c35 -24 43 -42 43 -101 0 -30 -7 -45 -34 -72 l-34
-34 -1397 2 -1397 3 -29 35 c-50 59 -32 153 35 180 11 5 642 9 1401 9 l1381 1
31 -23z"/>
<path d="M2070 1009 c-95 -38 -127 -154 -63 -229 52 -63 15 -60 785 -60 649 0
706 1 738 18 100 50 108 197 13 259 -25 17 -72 18 -738 20 -458 1 -719 -2
-735 -8z m1467 -47 c31 -17 43 -43 43 -92 0 -55 -30 -96 -78 -110 -24 -6 -281
-10 -714 -10 -739 0 -741 0 -767 56 -14 31 -14 99 -1 124 24 45 23 45 703 50
673 5 777 3 814 -18z"/>
</g>
</svg>
