<?xml version="1.0" standalone="no"?>
<!DOCTYPE svg PUBLIC "-//W3C//DTD SVG 20010904//EN"
 "http://www.w3.org/TR/2001/REC-SVG-20010904/DTD/svg10.dtd">
<svg version="1.0" xmlns="http://www.w3.org/2000/svg"
 width="286.000000pt" height="286.000000pt" viewBox="0 0 286.000000 286.000000"
 preserveAspectRatio="xMidYMid meet">
<metadata>
Created by potrace 1.10, written by Peter Selinger 2001-2011
</metadata>
<g transform="translate(0.000000,286.000000) scale(0.100000,-0.100000)"
fill="#07301e" stroke="none">
<path d="M1100 2267 c-124 -46 -305 -112 -404 -147 -152 -55 -180 -68 -188
-90 -6 -14 -13 -134 -16 -267 -6 -329 16 -488 99 -706 94 -250 256 -436 472
-542 90 -44 223 -85 277 -85 54 0 187 41 277 85 309 152 495 449 558 888 14
95 16 166 13 360 -3 133 -10 253 -15 267 -9 22 -46 38 -269 119 -428 156 -556
201 -568 200 -6 0 -112 -37 -236 -82z m316 17 c27 -9 63 -22 81 -30 17 -8 37
-14 45 -14 7 0 25 -6 40 -14 28 -15 93 -38 117 -42 8 -2 28 -10 45 -18 42 -20
338 -129 353 -129 7 0 21 -9 30 -19 14 -16 17 -51 21 -248 4 -207 1 -263 -23
-445 -9 -72 -85 -306 -113 -350 -4 -5 -7 -12 -7 -15 0 -3 -11 -23 -25 -45 -13
-22 -28 -47 -31 -55 -4 -8 -26 -37 -48 -64 -23 -26 -41 -52 -41 -56 0 -4 -27
-29 -61 -55 -33 -26 -69 -57 -80 -68 -10 -12 -19 -17 -19 -13 0 4 -19 -6 -42
-22 -111 -74 -275 -119 -370 -102 -60 11 -191 56 -228 78 -64 39 -127 82 -147
102 -13 11 -23 19 -23 16 0 -3 -19 14 -43 37 -23 23 -42 45 -40 48 1 3 -8 15
-20 26 -27 25 -59 63 -52 63 3 0 -6 18 -20 40 -50 79 -103 208 -136 330 -17
63 -19 70 -25 115 -3 22 -9 65 -14 95 -9 54 -9 541 0 570 8 22 40 36 295 127
39 13 79 28 90 32 11 5 22 8 25 8 3 1 23 8 45 18 88 38 312 113 341 114 17 1
53 -6 80 -15z"/>
<path d="M1297 2254 c-4 -4 -17 -9 -28 -11 -11 -2 -40 -12 -64 -23 -24 -11
-49 -20 -54 -20 -9 0 -84 -28 -176 -65 -11 -4 -25 -9 -30 -10 -34 -8 -304
-109 -322 -121 -46 -29 -51 -57 -52 -265 -2 -359 30 -535 140 -754 50 -101
144 -230 183 -252 11 -7 17 -12 12 -13 -5 0 12 -17 39 -37 27 -21 52 -37 57
-36 4 2 8 -1 8 -6 0 -5 12 -16 28 -24 108 -56 133 -67 141 -63 5 3 14 -1 20
-8 7 -8 43 -20 81 -27 59 -10 79 -10 136 4 74 19 172 62 249 110 55 34 158
118 152 123 -2 2 15 23 37 47 23 23 48 56 56 72 8 17 17 32 21 35 7 6 90 179
94 194 1 6 4 18 7 26 61 181 81 334 76 613 l-3 219 -32 28 c-18 16 -59 37 -90
46 -32 9 -62 20 -68 23 -5 4 -77 31 -160 60 -82 29 -157 56 -165 59 -8 3 -19
6 -25 8 -5 1 -46 17 -90 35 -80 32 -163 48 -178 33z m406 -159 c343 -125 357
-131 363 -158 13 -60 6 -431 -10 -535 -68 -437 -265 -708 -602 -828 -132 -46
-313 5 -478 136 -186 148 -303 377 -352 692 -16 104 -23 475 -10 535 6 27 20
33 364 159 196 73 360 131 363 130 4 0 167 -59 362 -131z"/>
<path d="M1192 1879 c-29 -14 -51 -36 -70 -68 -25 -43 -27 -54 -27 -158 l0
-113 -28 0 c-18 0 -39 -11 -58 -29 l-29 -29 0 -212 0 -212 29 -29 29 -29 302
0 302 0 29 29 29 29 0 212 0 212 -29 29 c-19 18 -40 29 -58 29 l-28 0 0 113
c0 99 -3 117 -23 152 -13 22 -39 52 -59 65 -33 23 -48 25 -152 28 -103 3 -121
0 -159 -19z m289 -46 c50 -33 60 -61 65 -183 6 -113 18 -141 70 -154 13 -4 28
-15 33 -25 6 -10 11 -101 11 -202 2 -171 0 -185 -18 -206 -20 -23 -22 -23
-301 -23 -268 0 -282 1 -301 20 -19 19 -20 33 -20 210 0 177 1 191 20 210 11
11 26 20 33 20 8 0 23 10 35 23 18 19 21 36 23 122 2 106 10 136 47 174 31 32
68 40 177 39 77 -1 95 -4 126 -25z"/>
<path d="M1227 1801 c-45 -27 -59 -71 -55 -173 4 -123 11 -127 171 -128 110 0
119 2 141 23 21 21 24 34 25 114 2 103 -7 129 -53 161 -29 20 -45 23 -118 21
-58 -1 -93 -7 -111 -18z m223 -41 c17 -17 20 -33 20 -120 l0 -100 -130 0 -130
0 0 100 c0 134 6 140 130 140 77 0 93 -3 110 -20z"/>
<path d="M1295 1448 c-61 -34 -82 -103 -50 -164 8 -16 15 -55 15 -86 0 -46 5
-62 26 -87 32 -39 71 -41 106 -6 21 21 25 35 27 97 1 47 7 78 17 89 15 17 20
99 5 99 -5 0 -13 9 -16 20 -13 40 -87 62 -130 38z m80 -34 c8 -4 23 -20 31
-36 13 -25 13 -35 4 -59 -7 -16 -16 -29 -21 -29 -4 0 -9 -37 -11 -82 l-3 -83
-35 0 -35 0 -3 83 c-2 45 -7 82 -11 82 -5 0 -14 13 -21 29 -9 24 -9 34 4 59
20 39 57 52 101 36z"/>
</g>
</svg>
